<svg width="256" height="256" viewBox="0 0 256 256" fill="none" xmlns="http://www.w3.org/2000/svg">
<rect width="256" height="256" rx="48" fill="white"/>
<path d="M177.627 101.904C176.84 100.479 175.997 99.0816 175.141 97.712C184.478 90.9195 195.638 86.4787 207.751 85.3028V53C189.796 58.1186 174.961 70.5832 166.633 86.9352C154.091 73.9173 136.481 65.8104 116.992 65.8104C78.8978 65.7966 48 96.7298 48 134.898C48 173.067 78.8978 204 116.992 204C155.086 204 185.983 173.053 185.983 134.898C185.983 127.11 184.671 119.639 182.309 112.653C184.105 112.943 185.914 113.331 187.696 113.815C191.052 114.714 194.229 115.945 197.268 117.384L208 98.7773C197.461 96.9097 187.006 98.1409 177.613 101.904H177.627ZM157.669 152.399V152.675C153.249 155.705 147.268 157.033 141.798 156.175C136.025 155.221 131.08 151.444 126.246 148.594C121.619 145.952 116.674 143.475 111.329 142.452C100.293 140.363 91.0387 146.81 83.1657 152.952C80.7486 154.847 77.9033 156.646 74.6575 156.729C58.2624 157.393 58.8978 129.544 60.5691 120.732C61.4116 116.568 64.0359 109.181 68.5525 105.196C70.9696 103.024 74.0083 101.876 77.489 102.831C79.6989 103.398 81.4945 105.003 82.8619 106.704C84.6575 108.973 85.8039 112.1 89.0635 112.86C90.5414 113.234 92.2265 112.86 93.5801 112.196C97.4751 110.398 100.307 107.078 103.359 104.518C109.657 99.1231 117.033 95.1527 125.749 94.1982C135.845 93.1606 146.564 95.3326 154.865 100.728C171.895 111.906 175.155 140.501 157.71 152.343L157.669 152.399Z" fill="#1F1F1F"/>
</svg>