<svg width="750" height="116" viewBox="0 0 750 116" fill="none" xmlns="http://www.w3.org/2000/svg">
<path d="M154.761 86.3031H136.146V25.8619H153.673L154.882 32.1477C158.63 26.9498 165.52 23.9277 173.377 23.9277C187.762 23.9277 196.103 33.1148 196.103 48.9504V86.3031H177.487V53.4231C177.487 45.8075 173.256 40.8513 166.85 40.8513C159.476 40.8513 154.761 45.6866 154.761 53.1813V86.3031Z" fill="#1F1F1F"/>
<path d="M222.872 87.8746C210.059 87.8746 202.08 80.3799 202.08 68.5334C202.08 57.4122 209.938 50.5219 224.444 49.434L241.367 48.1042V47.1372C241.367 41.2139 237.741 38.071 231.092 38.071C223.235 38.071 219.004 41.0931 219.004 46.5328H203.531C203.531 32.873 214.773 23.9277 232.059 23.9277C249.587 23.9277 259.5 33.7192 259.5 51.0054V86.3031H243.06L241.851 78.3249C239.917 83.8855 231.938 87.8746 222.872 87.8746ZM229.4 74.094C236.532 74.094 241.488 70.5884 241.488 63.6981V60.4343L232.059 61.2804C223.96 62.0057 221.059 63.819 221.059 67.6872C221.059 72.039 223.718 74.094 229.4 74.094Z" fill="#1F1F1F"/>
<path d="M286.632 86.3031H268.016V25.8619H285.423L286.632 32.1477C289.654 27.9169 295.577 23.9277 304.281 23.9277C313.347 23.9277 319.149 28.1586 322.655 34.5654C325.798 28.1586 332.93 23.9277 341.634 23.9277C357.227 23.9277 364.964 32.9939 364.964 46.7745V86.3031H346.348V51.9725C346.348 44.3569 342.359 40.7304 336.436 40.7304C331.117 40.7304 325.798 43.6316 325.798 53.9066V86.3031H307.182V51.9725C307.182 44.4778 303.314 40.8513 297.391 40.8513C292.072 40.8513 286.632 43.7525 286.632 53.9066V86.3031Z" fill="#1F1F1F"/>
<path d="M401.484 87.8746C383.23 87.8746 370.175 74.5775 370.175 55.9616C370.175 37.1039 382.868 23.9277 401.121 23.9277C420.1 23.9277 431.946 36.3786 431.946 56.0825V60.7969L388.066 61.0387C389.154 69.0169 393.626 72.7643 401.846 72.7643C408.857 72.7643 413.814 70.2258 415.143 65.874H432.188C430.012 79.2919 418.045 87.8746 401.484 87.8746ZM401.242 39.0381C393.868 39.0381 389.758 42.3019 388.307 49.5548H413.451C413.451 43.1481 408.737 39.0381 401.242 39.0381Z" fill="#1F1F1F"/>
<path d="M433.783 67.2037H451.432C451.674 71.4346 454.816 73.9731 460.498 73.9731C466.3 73.9731 468.96 71.9181 468.96 68.7752C468.96 66.9619 467.993 65.0278 463.52 64.0607L452.399 61.6431C441.278 59.2254 435.838 54.3901 435.838 43.7525C435.838 31.1807 446.596 23.9277 461.102 23.9277C475.125 23.9277 484.916 32.1477 484.916 44.3569H467.267C467.267 40.2469 464.729 37.4666 460.256 37.4666C456.025 37.4666 453.366 39.6425 453.366 42.9063C453.366 45.6866 455.663 47.2581 459.894 48.2251L471.136 50.6428C481.048 52.8187 486.488 57.4122 486.488 67.0828C486.488 80.0172 475.487 87.8746 459.773 87.8746C443.816 87.8746 433.783 79.4128 433.783 67.2037Z" fill="#1F1F1F"/>
<path d="M491.38 115.315V25.8619H508.908L509.875 33.2357C513.259 27.6751 520.875 23.9277 529.458 23.9277C546.26 23.9277 557.986 35.6533 557.986 55.1154C557.986 74.2149 547.59 87.9955 529.579 87.9955C521.238 87.9955 513.501 84.8525 509.996 80.259V115.315H491.38ZM510.116 56.0825C510.116 65.1487 516.161 71.1928 524.864 71.1928C533.689 71.1928 539.249 65.0278 539.249 56.0825C539.249 47.1372 533.689 40.9722 524.864 40.9722C516.161 40.9722 510.116 47.0163 510.116 56.0825Z" fill="#1F1F1F"/>
<path d="M582.12 87.8746C569.306 87.8746 561.328 80.3799 561.328 68.5334C561.328 57.4122 569.185 50.5219 583.691 49.434L600.615 48.1042V47.1372C600.615 41.2139 596.988 38.071 590.34 38.071C582.483 38.071 578.252 41.0931 578.252 46.5328H562.779C562.779 32.873 574.021 23.9277 591.307 23.9277C608.835 23.9277 618.747 33.7192 618.747 51.0054V86.3031H602.307L601.098 78.3249C599.164 83.8855 591.186 87.8746 582.12 87.8746ZM588.648 74.094C595.78 74.094 600.736 70.5884 600.736 63.6981V60.4343L591.307 61.2804C583.208 62.0057 580.307 63.819 580.307 67.6872C580.307 72.039 582.966 74.094 588.648 74.094Z" fill="#1F1F1F"/>
<path d="M624 55.8407C624 37.2248 636.814 23.9277 654.946 23.9277C672.837 23.9277 684.683 33.7192 685.892 49.5548H667.155C665.825 43.5107 662.078 40.6095 655.671 40.6095C647.814 40.6095 642.737 46.5328 642.737 55.8407C642.737 65.5113 647.451 71.1928 655.43 71.1928C661.957 71.1928 665.946 68.1707 667.155 62.2475H685.892C684.683 77.4787 672.353 87.8746 655.43 87.8746C636.33 87.8746 624 75.1819 624 55.8407Z" fill="#1F1F1F"/>
<path d="M719.296 87.8746C701.043 87.8746 687.988 74.5775 687.988 55.9616C687.988 37.1039 700.68 23.9277 718.934 23.9277C737.912 23.9277 749.759 36.3786 749.759 56.0825V60.7969L705.878 61.0387C706.966 69.0169 711.439 72.7643 719.659 72.7643C726.67 72.7643 731.626 70.2258 732.956 65.874H750C747.824 79.2919 735.857 87.8746 719.296 87.8746ZM719.054 39.0381C711.681 39.0381 707.571 42.3019 706.12 49.5548H731.263C731.263 43.1481 726.549 39.0381 719.054 39.0381Z" fill="#1F1F1F"/>
<path d="M88.2187 33.2289C87.6829 32.2607 87.1095 31.3113 86.5267 30.3807C92.8811 25.7653 100.476 22.7479 108.72 21.9489V0C96.5001 3.47799 86.4045 11.9474 80.7363 23.0581C72.2012 14.2128 60.2162 8.70437 46.9529 8.70437C21.0277 8.69497 0 29.7133 0 55.6478C0 81.5824 21.0277 102.601 46.9529 102.601C72.878 102.601 93.9057 81.573 93.9057 55.6478C93.9057 50.3557 93.0127 45.2797 91.4053 40.5327C92.6273 40.7301 93.8587 40.9933 95.0713 41.3223C97.3555 41.9333 99.5175 42.7699 101.585 43.7475L108.889 31.1045C101.717 29.8355 94.6013 30.6721 88.2093 33.2289H88.2187ZM74.6358 67.5388V67.7268C71.6278 69.7854 67.5576 70.6878 63.8352 70.105C59.906 69.4564 56.5408 66.8902 53.2508 64.9538C50.1018 63.1584 46.7367 61.4758 43.0989 60.7802C35.5883 59.3608 29.2903 63.7412 23.9323 67.9148C22.2873 69.2026 20.3509 70.4246 18.1419 70.481C6.98418 70.9322 7.41658 52.01 8.55397 46.0223C9.12737 43.1929 10.9134 38.1733 13.9872 35.4661C15.6322 33.9903 17.7001 33.2101 20.0689 33.8587C21.5729 34.2441 22.7949 35.3345 23.7255 36.4907C24.9475 38.0323 25.7277 40.1567 27.9461 40.6737C28.9519 40.9275 30.0987 40.6737 31.0199 40.2225C33.6707 39.0005 35.5977 36.7445 37.6751 35.0055C41.9615 31.3395 46.9811 28.6417 52.9124 27.9931C59.7838 27.2881 67.0782 28.7639 72.7276 32.4299C84.3177 40.0251 86.5361 59.4548 74.664 67.5012L74.6358 67.5388Z" fill="#1F1F1F"/>
</svg>
