<svg xmlns="http://www.w3.org/2000/svg" viewBox="0 0 160 151" fill="none">
  <path
    fill="#1f1f1f"
    d="M129.627 48.904c-.787-1.425-1.63-2.822-2.486-4.192 9.337-6.793 20.497-11.233 32.61-12.409V0c-17.955 5.119-32.79 17.583-41.118 33.935-12.542-13.018-30.152-21.125-49.641-21.125C30.898 12.797 0 43.73 0 81.898 0 120.067 30.898 151 68.992 151s68.991-30.947 68.991-69.102c0-7.788-1.312-15.259-3.674-22.245 1.796.29 3.605.678 5.387 1.162 3.356.899 6.533 2.13 9.572 3.569L160 45.777c-10.539-1.867-20.994-.636-30.387 3.127h.014Zm-19.958 50.495v.276c-4.42 3.03-10.401 4.358-15.871 3.5-5.773-.954-10.718-4.731-15.552-7.581-4.627-2.642-9.572-5.119-14.917-6.142-11.036-2.09-20.29 4.357-28.163 10.5-2.417 1.895-5.263 3.694-8.508 3.777-16.396.664-15.76-27.185-14.089-35.997.843-4.164 3.467-11.551 7.984-15.536 2.417-2.172 5.456-3.32 8.936-2.365 2.21.567 4.006 2.172 5.373 3.873 1.796 2.269 2.942 5.396 6.202 6.157 1.478.373 3.163 0 4.516-.664 3.895-1.799 6.727-5.119 9.779-7.679 6.299-5.395 13.674-9.365 22.39-10.32 10.096-1.037 20.815 1.135 29.116 6.53 17.03 11.178 20.29 39.774 2.845 51.615l-.041.056Z"
  />
</svg>
